<svg xmlns="http://www.w3.org/2000/svg" xmlns:xlink="http://www.w3.org/1999/xlink" height="150" width="599.7836493812396">
  <g opacity="1">
    <g opacity="1">
      <g opacity="1">
        <path fill="rgb(255,255,255)" fill-opacity="1" opacity="1" fill-rule="evenodd" d="M76.91206332820208 72.03968774978071C75.00162879309039 62.16687658522436 82.56471770663047 53 92.62066919835596 53L490.2731514647466 53C502.50101168945315 53 510.20947152074734 66.16033306536433 504.22871184600587 76.82574817158249L484.54108889855297 111.93444382375633C481.7101550340983 116.98281333610672 476.3734660841775 120.10869565217388 470.58552851729365 120.10869565217388L99.41436387545377 120.10869565217388C91.74983289632688 120.10869565217388 85.16186931311657 114.67332692262265 83.70575800529988 107.14838340195459L76.91206332820208 72.03968774978071Z"/>
      </g>
    </g>
    <g opacity="1">
      <g opacity="1">
        <g opacity="1">
          <g opacity="1">
            <g opacity="1">
              <path fill="rgb(255,255,255)" fill-opacity="1" opacity="1" fill-rule="evenodd" d="M66.41869354323299 19.841207363812682C63.92373228843969 9.752736900298062 71.55835686993544 -1.2727052742921091e-15 81.95076120945797 -2.8033079763878905e-21L573.8568946713032 1.5114666905065671e-15C581.1320492378404 1.5114666905065671e-15 587.4913492659033 4.908132624539963 589.3347507424467 11.945869829301555L599.3165991392336 50.05456548147545C601.972859145379 60.1956335605919 594.321919066113 70.10869565217388 583.8387430680901 70.10869565217388L91.37535331851385 70.10869565217388C84.01834596984008 70.10869565217388 77.60952257749827 65.0917490135188 75.84328565228891 57.94990301598658L66.41869354323299 19.841207363812682Z"/>
            </g>
            <g opacity="1">
              <path fill="rgb(149,70,71)" fill-opacity="1" opacity="1" fill-rule="evenodd" d="M459.67339647787134 21.608695652173996C459.67339647787134 12.7721396548813 466.83684048057864 5.608695652173991 475.67339647787134 5.608695652173992L562.8752692515543 5.608695652173994C569.7967912980126 5.608695652174 575.9335424893507 10.059281490119808 578.083682469422 16.63836695131484L586.8721484249965 43.529671299140894C590.252402346322 53.872709257163834 582.5451207243199 64.50000000000004 571.6637352071286 64.50000000000004L475.67339647787134 64.50000000000004C466.83684048057864 64.50000000000004 459.67339647787134 57.336555997292734 459.67339647787134 48.50000000000004L459.67339647787134 21.608695652173996Z"/>
            </g>
            <g opacity="1">
              <path fill="rgb(182,102,102)" fill-opacity="1" opacity="1" fill-rule="evenodd" d="M354.0257645900977 21.608695652173996C354.0257645900977 12.7721396548813 361.189208592805 5.608695652173991 370.0257645900977 5.608695652173992L476.01010391213026 5.608695652173994C483.51795327610677 5.608695652174 490.0160266298267 10.828995707459484 491.6341022798728 18.160409845461103L497.56913254063204 45.05171419328717C499.7731207585824 55.03786680649145 492.17161001156774 64.50000000000004 481.9451341728895 64.50000000000004L370.0257645900977 64.50000000000004C361.189208592805 64.50000000000004 354.0257645900977 57.336555997292734 354.0257645900977 48.500000000000036L354.0257645900977 21.608695652173996Z"/>
            </g>
            <g opacity="1">
              <path fill="rgb(215,134,134)" fill-opacity="1" opacity="1" fill-rule="evenodd" d="M258.0269105938581 21.608695652174C258.0269105938581 12.772139654881304 265.1903545965654 5.608695652173991 274.0269105938581 5.608695652173992L366.29307309866084 5.608695652173994C373.60352541193924 5.608695652173994 379.98427503624157 10.563619711778497 381.79468134295746 17.64635520234438L388.66832317978253 44.53765955017044C391.25473310824736 54.656303815567966 383.61068343829766 64.50000000000004 373.16671493548597 64.50000000000004L274.0269105938581 64.50000000000004C265.1903545965654 64.50000000000004 258.0269105938581 57.336555997292734 258.0269105938581 48.500000000000036L258.0269105938581 21.608695652174Z"/>
            </g>
            <g opacity="1">
              <path fill="rgb(249,168,168)" fill-opacity="1" opacity="1" fill-rule="evenodd" d="M193.49881056282638 25.75909642885376C190.76877432947637 15.594923378257798 198.42670538838124 5.608695652173991 208.95112991601528 5.608695652173992L270.8798473801064 5.608695652173994C278.11796048046705 5.608695652173994 284.45459984370575 10.467942679164686 286.33216673329525 17.458294875494232L293.55501062488986 44.34959922332031C296.28504685823987 54.51377227391628 288.627115799335 64.5000000000001 278.10269127170096 64.50000000000009L216.17397380760985 64.50000000000009C208.93586070724922 64.50000000000009 202.5992213440105 59.64075297300939 200.72165445442096 52.650400776679845L193.49881056282638 25.75909642885376Z"/>
            </g>
          </g>
          <g opacity="1">
            <text font-size="0" transform="translate(86.99999999999999, 19)">
              <tspan font-size="30" font-family="Avenir" font-weight="900" style="white-space: pre;text-transform: uppercase" fill="rgb(0,0,0)" x="0" y="30"> </tspan>
              <tspan font-size="30" font-family="Avenir Next Condensed" font-weight="400" style="white-space: pre;text-transform: uppercase" fill="rgb(0,0,0)" font-style="italic">LEGEND</tspan>
            </text>
          </g>
        </g>
      </g>
    </g>
  </g>
</svg>